<?xml version="1.0" standalone="no"?><!DOCTYPE svg PUBLIC "-//W3C//DTD SVG 1.1//EN" "http://www.w3.org/Graphics/SVG/1.1/DTD/svg11.dtd"><svg t="1546779740309" class="icon" style="" viewBox="0 0 1024 1024" version="1.1" xmlns="http://www.w3.org/2000/svg" p-id="660" xmlns:xlink="http://www.w3.org/1999/xlink" width="32" height="32"><defs><style type="text/css"></style></defs><path d="M509.43406 679.723979l328.591807 0c24.785499 0 47.437405 10.239202 63.686485 26.455535 0.427742 0.461511 0.851391 0.461511 0.851391 0.889253 15.82543 16.214287 25.604144 38.47222 25.604144 62.369489 0 24.783453-10.243295 47.433312-26.456558 63.682391-0.427742 0.424672-0.853437 0.817622-1.316995 1.281179-16.213263 15.360849-38.010709 25.175379-62.369489 25.175379L509.43406 859.577207c-24.74866 0-47.399543-10.241248-63.650669-26.456558l13.726629-13.725606-13.726629 13.725606c-0.425695-0.463558-0.852414-0.88823-0.852414-1.280156-15.788591-16.251126-25.637913-38.047548-25.637913-62.402235 0-24.749684 10.276041-47.009663 26.490328-63.258743C462.034517 689.963181 484.685399 679.723979 509.43406 679.723979L509.43406 679.723979zM887.596865 658.744155c-131.138736 0-264.057001 2.169409-395.265322 0-6.365988 0-12.374842-2.952238-16.21531-8.498558L362.47194 476.333686c-13.654998-21.370727-22.651906-34.206056-27.770484-36.767392-1.280156-0.817622-0.427742 3.450589-5.15644 9.422603-16.642029 20.091594-32.466436 39.718607-47.827285 59.347666-6.827499 8.603959-13.652951 17.137309-22.649859 28.693506-1.279133 1.671059-3.022847 3.411703-5.120624 5.082762-8.534374 6.009877-20.517289 4.303003-26.527167-4.26514l0 0c-13.19144-18.345834-20.872377-31.182186-28.16241-44.020586-4.693906-8.071839-8.960069-15.787568-14.968923-24.747637-5.120624-7.291057-4.693906-17.104563 0.88823-23.932062l0 0 99.136881-114.951055c17.921161-20.925588 34.597983-32.482809 52.127218-33.761941 19.202341-1.672082 36.305881 8.53335 53.408397 31.185256 14.935154 20.517289 37.124526 50.847062 58.919924 81.606623 14.508435 20.088524 28.66076 40.153512 41.462321 57.68377 5.582135-9.813506 11.095709-19.663852 17.10354-29.868261 27.76946-49.16884 60.660568-106.434078 85.907579-147.008168 2.952238-6.399757 9.351995-10.70276 17.033955-10.70276 31.221072 0 42.739407 0 56.43022 0 44.022633-0.425695 92.699262-0.817622 129.040958 0l0.853437 0c10.66899 0 19.664875 8.144494 19.664875 18.827811l0 0c0.851391 24.76708 0.425695 49.978275 0 75.206866 0 18.34788-0.461511 36.748972 0 54.68753l71.329559 0c35.488259 0 56.821123 31.211862 65.355497 70.931492 2.596128 13.652951 4.303003 28.198226 4.303003 43.128263 0 14.97097-1.706875 29.9051-4.730745 43.63173C944.026062 626.706485 922.22964 658.744155 887.596865 658.744155L887.596865 658.744155zM67.230706 663.4749c-15.787568-75.597769 25.638937-131.60127 79.899748-178.607864 0.853437-0.852414 1.706875-1.705851 2.596128-2.131547 8.9263-5.975085 20.872377-3.378957 26.456558 5.582135l51.665707 79.041194c2.169409 2.527566 3.056616 5.548366 3.449565 8.499581l-18.811438 3.022847 18.811438-3.022847c5.973038 39.789215 19.23611 66.243727 40.572044 84.201727 22.223141 18.810415 54.29765 29.904077 95.723132 38.864146 4.301979 0.856507 8.568143 2.987031 11.555174 6.828522 6.40078 8.141424 5.120624 20.554128-2.987031 26.91807l-11.982916-14.898315 11.982916 14.898315c-77.765131 62.865793-158.980851 67.098187-219.180931 39.788192-22.685675-10.701736-42.776246-25.672706-57.710376-44.447305C83.444992 709.629079 72.316537 687.403892 67.230706 663.4749L67.230706 663.4749z" p-id="661" fill="#515151"></path><path d="M735.939817 456.669834 602.170161 456.669834l-0.38988 0c-3.025916 0-6.437619-0.853437-9.425673-2.560312-9.42158-5.120624-12.373819-16.642029-7.251148-26.056446l0 0 46.544059-82.461083c2.986007-6.843872 9.851369-11.57257 17.532305-11.57257l86.758969 0c10.66899 0 19.203364 8.996908 19.203364 19.23611l0 84.210937C755.142158 448.136483 746.607784 456.669834 735.939817 456.669834L735.939817 456.669834z" p-id="662" fill="#515151"></path><path d="M838.025866 718.16243 509.43406 718.16243c-14.045901 0-26.883277 5.547343-36.305881 14.969946-9.422603 9.423627-15.360849 22.225187-15.360849 36.305881 0 13.651928 5.51255 26.491351 14.507412 35.449373 0 0.464581 0.427742 0.889253 0.853437 0.889253l0 0 0 0c8.997931 9.386788 22.25998 15.359826 36.305881 15.359826l328.591807 0c13.690814 0 26.492374-5.54632 35.488259-14.507412l0.855484-0.852414c9.385764-8.959046 15.395642-22.224164 15.395642-36.338626 0-13.656021-5.582135-26.064632-14.57802-35.453467l-0.817622-0.852414C864.948029 723.709773 852.144422 718.16243 838.025866 718.16243L838.025866 718.16243z" p-id="663" fill="#515151"></path><path d="M815.805796 737.400586c17.564028 0 32.072463 14.541181 32.072463 32.038694 0 17.920138-14.508435 32.03767-32.072463 32.03767-17.958 0-32.04074-14.117532-32.04074-32.03767C783.765055 751.941767 797.847795 737.400586 815.805796 737.400586L815.805796 737.400586z" p-id="664" fill="#515151"></path><path d="M720.934055 737.400586c17.993816 0 32.074509 14.541181 32.074509 32.038694 0 17.920138-14.080693 32.03767-32.074509 32.03767-17.458627 0-32.036647-14.117532-32.036647-32.03767C688.897408 751.941767 703.475428 737.400586 720.934055 737.400586L720.934055 737.400586z" p-id="665" fill="#515151"></path><path d="M626.525871 737.400586c17.530258 0 32.074509 14.541181 32.074509 32.038694 0 17.920138-14.544251 32.03767-32.074509 32.03767-17.920138 0-32.036647-14.117532-32.036647-32.03767C594.489224 751.941767 608.605733 737.400586 626.525871 737.400586L626.525871 737.400586z" p-id="666" fill="#515151"></path><path d="M531.694039 737.400586c17.922185 0 32.038694 14.541181 32.038694 32.038694 0 17.920138-14.116509 32.03767-32.038694 32.03767-17.531282 0-32.038694-14.117532-32.038694-32.03767C499.655346 751.941767 514.162758 737.400586 531.694039 737.400586L531.694039 737.400586z" p-id="667" fill="#515151"></path></svg>